<svg width="652" height="626" viewBox="0 0 652 626" fill="none" xmlns="http://www.w3.org/2000/svg">
<g clip-path="url(#clip0)">
<path opacity="0.1" d="M187.301 107.361H138.393C135.572 107.361 133.285 110.109 133.285 113.498V122.698C133.285 126.087 135.572 128.834 138.393 128.834H187.301C190.122 128.834 192.409 126.087 192.409 122.698V113.498C192.409 110.109 190.122 107.361 187.301 107.361Z" fill="#659F9B"/>
<path opacity="0.1" d="M249.176 128.834H200.267C197.446 128.834 195.159 131.581 195.159 134.97V144.17C195.159 147.559 197.446 150.306 200.267 150.306H249.176C251.997 150.306 254.284 147.559 254.284 144.17V134.97C254.284 131.581 251.997 128.834 249.176 128.834Z" fill="#659F9B"/>
<path opacity="0.1" d="M311.05 150.306H262.142C259.321 150.306 257.034 153.053 257.034 156.442V165.642C257.034 169.031 259.321 171.778 262.142 171.778H311.05C313.872 171.778 316.159 169.031 316.159 165.642V156.442C316.159 153.053 313.872 150.306 311.05 150.306Z" fill="#659F9B"/>
<path opacity="0.1" d="M187.301 75.153H138.393C135.572 75.153 133.285 77.9003 133.285 81.2892V90.4892C133.285 93.8781 135.572 96.6253 138.393 96.6253H187.301C190.122 96.6253 192.409 93.8781 192.409 90.4892V81.2892C192.409 77.9003 190.122 75.153 187.301 75.153Z" fill="#659F9B"/>
<path opacity="0.1" d="M249.176 96.6253H200.267C197.446 96.6253 195.159 99.3726 195.159 102.761V111.962C195.159 115.35 197.446 118.098 200.267 118.098H249.176C251.997 118.098 254.284 115.35 254.284 111.962V102.761C254.284 99.3726 251.997 96.6253 249.176 96.6253Z" fill="#659F9B"/>
<path opacity="0.1" d="M311.05 118.098H262.142C259.321 118.098 257.034 120.845 257.034 124.234V133.434C257.034 136.823 259.321 139.57 262.142 139.57H311.05C313.872 139.57 316.159 136.823 316.159 133.434V124.234C316.159 120.845 313.872 118.098 311.05 118.098Z" fill="#659F9B"/>
<path opacity="0.1" d="M379.8 107.361H330.892C328.07 107.361 325.783 110.109 325.783 113.498V122.698C325.783 126.087 328.07 128.834 330.892 128.834H379.8C382.621 128.834 384.908 126.087 384.908 122.698V113.498C384.908 110.109 382.621 107.361 379.8 107.361Z" fill="#659F9B"/>
<path opacity="0.1" d="M441.674 128.834H392.766C389.945 128.834 387.658 131.581 387.658 134.97V144.17C387.658 147.559 389.945 150.306 392.766 150.306H441.674C444.496 150.306 446.783 147.559 446.783 144.17V134.97C446.783 131.581 444.496 128.834 441.674 128.834Z" fill="#659F9B"/>
<path opacity="0.1" d="M503.549 150.306H454.641C451.819 150.306 449.532 153.053 449.532 156.442V165.642C449.532 169.031 451.819 171.778 454.641 171.778H503.549C506.37 171.778 508.657 169.031 508.657 165.642V156.442C508.657 153.053 506.37 150.306 503.549 150.306Z" fill="#659F9B"/>
<path opacity="0.1" d="M379.8 75.153H330.892C328.07 75.153 325.783 77.9003 325.783 81.2892V90.4892C325.783 93.8781 328.07 96.6253 330.892 96.6253H379.8C382.621 96.6253 384.908 93.8781 384.908 90.4892V81.2892C384.908 77.9003 382.621 75.153 379.8 75.153Z" fill="#659F9B"/>
<path opacity="0.1" d="M441.674 96.6253H392.766C389.945 96.6253 387.658 99.3726 387.658 102.761V111.962C387.658 115.35 389.945 118.098 392.766 118.098H441.674C444.496 118.098 446.783 115.35 446.783 111.962V102.761C446.783 99.3726 444.496 96.6253 441.674 96.6253Z" fill="#659F9B"/>
<path opacity="0.1" d="M503.549 118.098H454.641C451.819 118.098 449.532 120.845 449.532 124.234V133.434C449.532 136.823 451.819 139.57 454.641 139.57H503.549C506.37 139.57 508.657 136.823 508.657 133.434V124.234C508.657 120.845 506.37 118.098 503.549 118.098Z" fill="#659F9B"/>
<path opacity="0.1" d="M187.301 32.2084H138.393C135.572 32.2084 133.285 34.9557 133.285 38.3446V47.5446C133.285 50.9335 135.572 53.6807 138.393 53.6807H187.301C190.122 53.6807 192.409 50.9335 192.409 47.5446V38.3446C192.409 34.9557 190.122 32.2084 187.301 32.2084Z" fill="#659F9B"/>
<path opacity="0.1" d="M249.176 53.6807H200.267C197.446 53.6807 195.159 56.428 195.159 59.8169V69.0169C195.159 72.4058 197.446 75.153 200.267 75.153H249.176C251.997 75.153 254.284 72.4058 254.284 69.0169V59.8169C254.284 56.428 251.997 53.6807 249.176 53.6807Z" fill="#659F9B"/>
<path opacity="0.1" d="M311.05 75.153H262.142C259.321 75.153 257.034 77.9003 257.034 81.2892V90.4892C257.034 93.8781 259.321 96.6253 262.142 96.6253H311.05C313.872 96.6253 316.159 93.8781 316.159 90.4892V81.2892C316.159 77.9003 313.872 75.153 311.05 75.153Z" fill="#659F9B"/>
<path opacity="0.1" d="M187.301 0H138.393C135.572 0 133.285 2.74723 133.285 6.13612V15.3362C133.285 18.7251 135.572 21.4723 138.393 21.4723H187.301C190.122 21.4723 192.409 18.7251 192.409 15.3362V6.13612C192.409 2.74723 190.122 0 187.301 0Z" fill="#659F9B"/>
<path opacity="0.1" d="M249.176 21.4723H200.267C197.446 21.4723 195.159 24.2195 195.159 27.6084V36.8085C195.159 40.1973 197.446 42.9446 200.267 42.9446H249.176C251.997 42.9446 254.284 40.1973 254.284 36.8085V27.6084C254.284 24.2195 251.997 21.4723 249.176 21.4723Z" fill="#659F9B"/>
<path opacity="0.1" d="M311.05 42.9446H262.142C259.321 42.9446 257.034 45.6918 257.034 49.0807V58.2808C257.034 61.6696 259.321 64.4169 262.142 64.4169H311.05C313.872 64.4169 316.159 61.6696 316.159 58.2808V49.0807C316.159 45.6918 313.872 42.9446 311.05 42.9446Z" fill="#659F9B"/>
<path opacity="0.1" d="M379.8 32.2084H330.892C328.07 32.2084 325.783 34.9557 325.783 38.3446V47.5446C325.783 50.9335 328.07 53.6807 330.892 53.6807H379.8C382.621 53.6807 384.908 50.9335 384.908 47.5446V38.3446C384.908 34.9557 382.621 32.2084 379.8 32.2084Z" fill="#659F9B"/>
<path opacity="0.1" d="M441.674 53.6807H392.766C389.945 53.6807 387.658 56.428 387.658 59.8169V69.0169C387.658 72.4058 389.945 75.153 392.766 75.153H441.674C444.496 75.153 446.783 72.4058 446.783 69.0169V59.8169C446.783 56.428 444.496 53.6807 441.674 53.6807Z" fill="#659F9B"/>
<path opacity="0.1" d="M503.549 75.153H454.641C451.819 75.153 449.532 77.9003 449.532 81.2892V90.4892C449.532 93.8781 451.819 96.6253 454.641 96.6253H503.549C506.37 96.6253 508.657 93.8781 508.657 90.4892V81.2892C508.657 77.9003 506.37 75.153 503.549 75.153Z" fill="#659F9B"/>
<path opacity="0.1" d="M379.8 0H330.892C328.07 0 325.783 2.74723 325.783 6.13612V15.3362C325.783 18.7251 328.07 21.4723 330.892 21.4723H379.8C382.621 21.4723 384.908 18.7251 384.908 15.3362V6.13612C384.908 2.74723 382.621 0 379.8 0Z" fill="#659F9B"/>
<path opacity="0.1" d="M441.674 21.4723H392.766C389.945 21.4723 387.658 24.2195 387.658 27.6084V36.8085C387.658 40.1973 389.945 42.9446 392.766 42.9446H441.674C444.496 42.9446 446.783 40.1973 446.783 36.8085V27.6084C446.783 24.2195 444.496 21.4723 441.674 21.4723Z" fill="#659F9B"/>
<path opacity="0.1" d="M503.549 42.9446H454.641C451.819 42.9446 449.532 45.6918 449.532 49.0807V58.2808C449.532 61.6696 451.819 64.4169 454.641 64.4169H503.549C506.37 64.4169 508.657 61.6696 508.657 58.2808V49.0807C508.657 45.6918 506.37 42.9446 503.549 42.9446Z" fill="#659F9B"/>
<path opacity="0.1" d="M187.301 489.733H138.393C135.572 489.733 133.285 492.481 133.285 495.87V505.07C133.285 508.459 135.572 511.206 138.393 511.206H187.301C190.122 511.206 192.409 508.459 192.409 505.07V495.87C192.409 492.481 190.122 489.733 187.301 489.733Z" fill="#659F9B"/>
<path opacity="0.1" d="M249.176 511.206H200.267C197.446 511.206 195.159 513.953 195.159 517.342V526.542C195.159 529.931 197.446 532.678 200.267 532.678H249.176C251.997 532.678 254.284 529.931 254.284 526.542V517.342C254.284 513.953 251.997 511.206 249.176 511.206Z" fill="#659F9B"/>
<path opacity="0.1" d="M311.05 532.678H262.142C259.321 532.678 257.034 535.425 257.034 538.814V548.014C257.034 551.403 259.321 554.15 262.142 554.15H311.05C313.872 554.15 316.159 551.403 316.159 548.014V538.814C316.159 535.425 313.872 532.678 311.05 532.678Z" fill="#659F9B"/>
<path opacity="0.1" d="M187.301 457.525H138.393C135.572 457.525 133.285 460.272 133.285 463.661V472.861C133.285 476.25 135.572 478.997 138.393 478.997H187.301C190.122 478.997 192.409 476.25 192.409 472.861V463.661C192.409 460.272 190.122 457.525 187.301 457.525Z" fill="#659F9B"/>
<path opacity="0.1" d="M249.176 478.997H200.267C197.446 478.997 195.159 481.745 195.159 485.133V494.334C195.159 497.722 197.446 500.47 200.267 500.47H249.176C251.997 500.47 254.284 497.722 254.284 494.334V485.133C254.284 481.745 251.997 478.997 249.176 478.997Z" fill="#659F9B"/>
<path opacity="0.1" d="M311.05 500.47H262.142C259.321 500.47 257.034 503.217 257.034 506.606V515.806C257.034 519.195 259.321 521.942 262.142 521.942H311.05C313.872 521.942 316.159 519.195 316.159 515.806V506.606C316.159 503.217 313.872 500.47 311.05 500.47Z" fill="#659F9B"/>
<path opacity="0.1" d="M379.8 489.733H330.892C328.07 489.733 325.783 492.481 325.783 495.87V505.07C325.783 508.459 328.07 511.206 330.892 511.206H379.8C382.621 511.206 384.908 508.459 384.908 505.07V495.87C384.908 492.481 382.621 489.733 379.8 489.733Z" fill="#659F9B"/>
<path opacity="0.1" d="M441.674 511.206H392.766C389.945 511.206 387.658 513.953 387.658 517.342V526.542C387.658 529.931 389.945 532.678 392.766 532.678H441.674C444.496 532.678 446.783 529.931 446.783 526.542V517.342C446.783 513.953 444.496 511.206 441.674 511.206Z" fill="#659F9B"/>
<path opacity="0.1" d="M503.549 532.678H454.641C451.819 532.678 449.532 535.425 449.532 538.814V548.014C449.532 551.403 451.819 554.15 454.641 554.15H503.549C506.37 554.15 508.657 551.403 508.657 548.014V538.814C508.657 535.425 506.37 532.678 503.549 532.678Z" fill="#659F9B"/>
<path opacity="0.1" d="M379.8 457.525H330.892C328.07 457.525 325.783 460.272 325.783 463.661V472.861C325.783 476.25 328.07 478.997 330.892 478.997H379.8C382.621 478.997 384.908 476.25 384.908 472.861V463.661C384.908 460.272 382.621 457.525 379.8 457.525Z" fill="#659F9B"/>
<path opacity="0.1" d="M441.674 478.997H392.766C389.945 478.997 387.658 481.745 387.658 485.133V494.334C387.658 497.722 389.945 500.47 392.766 500.47H441.674C444.496 500.47 446.783 497.722 446.783 494.334V485.133C446.783 481.745 444.496 478.997 441.674 478.997Z" fill="#659F9B"/>
<path opacity="0.1" d="M503.549 500.47H454.641C451.819 500.47 449.532 503.217 449.532 506.606V515.806C449.532 519.195 451.819 521.942 454.641 521.942H503.549C506.37 521.942 508.657 519.195 508.657 515.806V506.606C508.657 503.217 506.37 500.47 503.549 500.47Z" fill="#659F9B"/>
<path opacity="0.1" d="M187.301 414.58H138.393C135.572 414.58 133.285 417.328 133.285 420.717V429.917C133.285 433.306 135.572 436.053 138.393 436.053H187.301C190.122 436.053 192.409 433.306 192.409 429.917V420.717C192.409 417.328 190.122 414.58 187.301 414.58Z" fill="#659F9B"/>
<path opacity="0.1" d="M249.176 436.053H200.267C197.446 436.053 195.159 438.8 195.159 442.189V451.389C195.159 454.778 197.446 457.525 200.267 457.525H249.176C251.997 457.525 254.284 454.778 254.284 451.389V442.189C254.284 438.8 251.997 436.053 249.176 436.053Z" fill="#659F9B"/>
<path opacity="0.1" d="M311.05 457.525H262.142C259.321 457.525 257.034 460.272 257.034 463.661V472.861C257.034 476.25 259.321 478.997 262.142 478.997H311.05C313.872 478.997 316.159 476.25 316.159 472.861V463.661C316.159 460.272 313.872 457.525 311.05 457.525Z" fill="#659F9B"/>
<path opacity="0.1" d="M187.301 382.372H138.393C135.572 382.372 133.285 385.119 133.285 388.508V397.708C133.285 401.097 135.572 403.844 138.393 403.844H187.301C190.122 403.844 192.409 401.097 192.409 397.708V388.508C192.409 385.119 190.122 382.372 187.301 382.372Z" fill="#659F9B"/>
<path opacity="0.1" d="M249.176 403.844H200.267C197.446 403.844 195.159 406.592 195.159 409.98V419.18C195.159 422.569 197.446 425.317 200.267 425.317H249.176C251.997 425.317 254.284 422.569 254.284 419.18V409.98C254.284 406.592 251.997 403.844 249.176 403.844Z" fill="#659F9B"/>
<path opacity="0.1" d="M311.05 425.317H262.142C259.321 425.317 257.034 428.064 257.034 431.453V440.653C257.034 444.042 259.321 446.789 262.142 446.789H311.05C313.872 446.789 316.159 444.042 316.159 440.653V431.453C316.159 428.064 313.872 425.317 311.05 425.317Z" fill="#659F9B"/>
<path opacity="0.1" d="M379.8 414.58H330.892C328.07 414.58 325.783 417.328 325.783 420.717V429.917C325.783 433.306 328.07 436.053 330.892 436.053H379.8C382.621 436.053 384.908 433.306 384.908 429.917V420.717C384.908 417.328 382.621 414.58 379.8 414.58Z" fill="#659F9B"/>
<path opacity="0.1" d="M441.674 436.053H392.766C389.945 436.053 387.658 438.8 387.658 442.189V451.389C387.658 454.778 389.945 457.525 392.766 457.525H441.674C444.496 457.525 446.783 454.778 446.783 451.389V442.189C446.783 438.8 444.496 436.053 441.674 436.053Z" fill="#659F9B"/>
<path opacity="0.1" d="M503.549 457.525H454.641C451.819 457.525 449.532 460.272 449.532 463.661V472.861C449.532 476.25 451.819 478.997 454.641 478.997H503.549C506.37 478.997 508.657 476.25 508.657 472.861V463.661C508.657 460.272 506.37 457.525 503.549 457.525Z" fill="#659F9B"/>
<path opacity="0.1" d="M379.8 382.372H330.892C328.07 382.372 325.783 385.119 325.783 388.508V397.708C325.783 401.097 328.07 403.844 330.892 403.844H379.8C382.621 403.844 384.908 401.097 384.908 397.708V388.508C384.908 385.119 382.621 382.372 379.8 382.372Z" fill="#659F9B"/>
<path opacity="0.1" d="M441.674 403.844H392.766C389.945 403.844 387.658 406.592 387.658 409.98V419.18C387.658 422.569 389.945 425.317 392.766 425.317H441.674C444.496 425.317 446.783 422.569 446.783 419.18V409.98C446.783 406.592 444.496 403.844 441.674 403.844Z" fill="#659F9B"/>
<path opacity="0.1" d="M503.549 425.317H454.641C451.819 425.317 449.532 428.064 449.532 431.453V440.653C449.532 444.042 451.819 446.789 454.641 446.789H503.549C506.37 446.789 508.657 444.042 508.657 440.653V431.453C508.657 428.064 506.37 425.317 503.549 425.317Z" fill="#659F9B"/>
<path opacity="0.1" d="M331.627 626C498.123 626 633.094 612.689 633.094 596.269C633.094 579.849 498.123 566.538 331.627 566.538C165.132 566.538 30.1604 579.849 30.1604 596.269C30.1604 612.689 165.132 626 331.627 626Z" fill="#659F9B"/>
<path d="M58.1965 154.27C86.6244 169.07 102.959 199.692 102.959 199.692C102.959 199.692 73.1976 206.299 44.7628 191.508C16.328 176.717 0 146.086 0 146.086C0 146.086 29.7617 139.471 58.1965 154.27Z" fill="#659F9B"/>
<path d="M145.44 97.4512C154.233 80.1082 169.206 71.8496 169.206 71.8496C169.206 71.8496 169.894 91.6206 161.128 108.914C152.363 126.208 137.355 134.458 137.355 134.458C137.355 134.458 136.64 114.695 145.44 97.4512Z" fill="#659F9B"/>
<path d="M80.8013 116.008C87.0919 142.981 104.431 160.737 104.431 160.737C104.431 160.737 111.574 134.747 105.283 107.766C98.9925 80.7854 81.647 63.0377 81.647 63.0377C81.647 63.0377 74.5039 89.0274 80.8013 116.008Z" fill="#46455B"/>
<path d="M577.95 114.794H86.6795C83.9419 114.794 81.7227 117.46 81.7227 120.749V410.278C81.7227 413.566 83.9419 416.232 86.6795 416.232H577.95C580.688 416.232 582.907 413.566 582.907 410.278V120.749C582.907 117.46 580.688 114.794 577.95 114.794Z" fill="#3F3D56"/>
<path opacity="0.1" d="M81.7227 398.063H582.907V410.278C582.907 411.857 582.385 413.371 581.455 414.488C580.525 415.605 579.265 416.232 577.95 416.232H86.6795C85.3649 416.232 84.1041 415.605 83.1745 414.488C82.2449 413.371 81.7227 411.857 81.7227 410.278V398.063Z" fill="black"/>
<path d="M165.941 375.765H132.253C131.304 375.765 130.535 376.69 130.535 377.83V395.999C130.535 397.139 131.304 398.063 132.253 398.063H165.941C166.89 398.063 167.659 397.139 167.659 395.999V377.83C167.659 376.69 166.89 375.765 165.941 375.765Z" fill="#659F9B"/>
<path d="M202.034 394.76H179.347C178.588 394.76 177.972 395.499 177.972 396.412C177.972 397.324 178.588 398.063 179.347 398.063H202.034C202.794 398.063 203.409 397.324 203.409 396.412C203.409 395.499 202.794 394.76 202.034 394.76Z" fill="#659F9B"/>
<path d="M155.388 173.744C173.531 177.766 192.038 173.744 210.106 171.019L265.016 162.76C267.236 162.421 270.468 160.827 271.774 164.09C272.509 165.915 272.014 169.871 272.069 171.968C272.214 177.749 272.2 183.53 272.069 189.311C271.822 200.361 271.148 211.386 270.289 222.387C268.618 243.917 266.253 265.331 265.071 286.944C264.466 297.945 264.163 308.978 264.431 319.978C264.493 322.605 264.583 325.231 264.713 327.849C264.858 330.781 265.951 335.133 263.29 337.09C261.771 338.213 258.78 338.156 257.041 338.486C254.291 339.006 251.541 339.419 248.736 339.758C230.249 341.979 211.522 341.054 192.966 340.922L136.935 340.575L123.268 340.485C122.03 340.485 117.569 341.376 116.806 339.609C116.482 338.858 117.342 335.339 117.493 334.398C117.704 332.845 117.933 331.295 118.181 329.748C119.775 318.888 121.659 308.094 123.557 297.309C127.634 274.185 131.807 250.945 133.484 227.326C134.316 215.474 133.766 203.516 134.784 191.69C135.258 186.198 135.822 173.942 141.906 173.455C147.062 173.042 152.37 173.455 157.54 173.455C157.813 173.455 158.075 173.324 158.269 173.092C158.462 172.86 158.571 172.545 158.571 172.216C158.571 171.888 158.462 171.572 158.269 171.34C158.075 171.108 157.813 170.977 157.54 170.977C152.658 170.977 147.77 170.82 142.889 170.936C139.644 171.01 137.389 171.935 135.842 175.519C131.889 184.72 132.295 196.992 132.171 207.034C131.875 231.075 128.802 254.604 124.801 278.116C122.787 289.95 120.614 301.744 118.614 313.586C117.672 319.243 116.771 324.917 115.946 330.607C115.561 333.316 113.616 339.287 115.327 341.773C117.039 344.259 122.305 342.921 124.664 342.937L141.067 343.053L172.5 343.268C192.808 343.408 213.185 344.094 233.487 343.375C243.181 343.028 253.425 342.549 262.864 339.766C265.676 338.94 267.03 337.388 267.14 333.787C267.305 328.204 266.549 322.448 266.453 316.84C265.765 268.858 275.149 221.545 274.187 173.546C274.125 170.284 275.149 162.058 272.179 160.084C270.846 159.192 269.113 159.68 267.711 159.878C265.029 160.249 262.355 160.704 259.674 161.083L224.852 166.303C213.722 167.955 202.598 169.738 191.447 171.258C179.643 172.91 167.721 173.893 155.958 171.258C154.659 170.969 154.102 173.356 155.408 173.645L155.388 173.744Z" fill="#659F9B"/>
<path d="M133.498 202.938L270.873 194.845C272.2 194.762 272.207 192.284 270.873 192.367L133.498 200.46C132.178 200.535 132.171 203.012 133.498 202.938Z" fill="#659F9B"/>
<path d="M175.82 182.515C175.436 183.004 175.157 183.598 175.008 184.246C174.858 184.894 174.843 185.576 174.963 186.233C175.083 186.89 175.334 187.502 175.696 188.015C176.057 188.529 176.518 188.928 177.037 189.179C178.886 190.195 181.059 189.344 182.894 188.791C185.644 187.965 188.394 187.23 191.22 186.627C197.37 185.319 203.599 184.623 209.844 184.546C212.691 184.505 215.516 184.662 218.362 184.81C220.425 184.909 222.645 185.108 224.392 183.572C226.385 181.821 227.032 178.402 225.079 176.271C222.329 173.257 216.403 175.007 213.227 175.321C201.701 176.471 190.251 178.524 178.948 181.466C177.656 181.796 178.199 184.191 179.498 183.852C186.955 181.92 194.47 180.367 202.041 179.195C205.763 178.644 209.491 178.179 213.227 177.799C214.987 177.625 216.747 177.469 218.507 177.345C219.194 177.295 219.923 177.204 220.624 177.229C222.804 177.287 223.058 176.816 221.752 179.979C220.59 182.779 220.961 182.457 218.947 182.366C218.094 182.366 217.242 182.25 216.389 182.201C214.643 182.113 212.897 182.066 211.151 182.06C207.433 182.06 203.726 182.275 200.027 182.704C196.892 183.068 193.764 183.58 190.663 184.241C188.724 184.653 186.799 185.132 184.881 185.661C184.036 185.901 183.183 186.148 182.338 186.404C181.932 186.536 181.519 186.652 181.114 186.776C179.611 187.404 178.33 186.578 177.271 184.298C178.192 183.15 176.741 181.391 175.813 182.548L175.82 182.515Z" fill="#659F9B"/>
<path d="M200.721 217.762C190.773 217.3 180.028 220.529 173.476 230.15C168.347 237.674 165.425 250.582 170.856 259.055C176.693 268.139 189.494 266.537 197.215 262.664C205.382 258.535 214.32 250.02 216.774 239.367C219.834 226.062 209.899 216.003 199.552 215.854C198.226 215.854 198.226 218.332 199.552 218.332C205.451 218.415 211.24 221.454 213.99 228.052C216.871 235.006 214.389 242.307 210.552 247.873C204.406 256.734 194.795 263.416 185.005 263.226C179.127 263.118 172.63 260.698 170.808 253.249C169.31 247.212 170.451 240.614 173.063 235.262C178.715 223.7 190.216 219.785 200.762 220.281C202.089 220.339 202.089 217.861 200.762 217.803L200.721 217.762Z" fill="#659F9B"/>
<path d="M190.842 236.113C190.418 235.924 189.961 235.867 189.513 235.947C189.066 236.028 188.643 236.243 188.283 236.573C187.924 236.902 187.64 237.336 187.457 237.833C187.274 238.33 187.2 238.875 187.239 239.416C187.446 242.637 190.402 243.545 192.622 243.355C194.541 243.157 196.782 242.307 196.108 239.424C195.984 238.914 195.77 238.442 195.481 238.04C195.191 237.638 194.833 237.316 194.431 237.095C193.815 236.802 193.148 236.703 192.492 236.806C192.237 236.806 189.907 237.83 190.897 236.6L189.274 236.344C189.454 236.557 189.592 236.816 189.678 237.102C189.764 237.388 189.795 237.693 189.769 237.996C189.772 238.211 189.822 238.423 189.914 238.608C190.005 238.794 190.135 238.949 190.291 239.056C190.447 239.163 190.623 239.22 190.803 239.221C190.983 239.222 191.16 239.167 191.316 239.061C191.552 238.942 191.811 238.905 192.063 238.953C192.316 239.002 192.552 239.134 192.746 239.334C192.939 239.535 193.082 239.797 193.159 240.09C193.236 240.383 193.243 240.696 193.179 240.993C193.124 241.28 193.154 241.58 193.265 241.842C193.376 242.103 193.561 242.31 193.786 242.424C194.011 242.539 194.263 242.554 194.496 242.468C194.73 242.381 194.931 242.198 195.063 241.951C195.751 240.465 196.582 237.508 195.551 235.956C194.864 234.907 193.537 235.221 192.712 235.832C192.203 236.265 191.729 236.754 191.296 237.294C190.464 238.177 189.921 238.59 190.23 236.897C190.746 233.817 193.193 231.364 195.427 230.133L193.915 228.738C193.122 232.317 191.704 235.653 189.756 238.524L191.516 239.4C191.466 238.266 191.708 237.141 192.21 236.179C192.712 235.216 193.449 234.464 194.321 234.023H193.31L193.846 235.08C193.647 236.641 195.634 237.31 195.833 235.733C196.094 233.693 195.022 231.042 193.035 232.041C190.663 233.23 189.432 236.493 189.481 239.4C189.481 240.391 190.649 241.159 191.247 240.283C193.434 237.092 195.03 233.379 195.929 229.39C195.977 229.154 195.967 228.905 195.899 228.676C195.831 228.446 195.71 228.245 195.549 228.097C195.388 227.949 195.194 227.861 194.992 227.842C194.79 227.824 194.588 227.877 194.41 227.994C192.35 229.113 190.61 230.934 189.405 233.23C188.566 234.882 187.514 237.459 188.367 239.358C188.507 239.662 188.695 239.93 188.922 240.146C189.148 240.361 189.408 240.521 189.686 240.616C189.964 240.71 190.255 240.737 190.542 240.696C190.829 240.654 191.106 240.545 191.357 240.374C191.993 239.921 192.574 239.366 193.083 238.722C193.337 238.45 193.619 237.979 193.956 237.897C194.259 237.649 194.245 237.789 193.908 238.334C193.904 239.19 193.696 240.027 193.31 240.746L195.194 241.695C195.363 240.924 195.344 240.111 195.137 239.353C194.93 238.595 194.544 237.925 194.027 237.425C193.51 236.924 192.884 236.614 192.223 236.532C191.563 236.451 190.897 236.6 190.306 236.963L191.859 238.037C191.892 236.986 191.617 235.955 191.083 235.122C191.001 234.961 190.891 234.824 190.76 234.722C190.629 234.619 190.481 234.553 190.326 234.528C190.171 234.504 190.013 234.521 189.864 234.58C189.716 234.638 189.58 234.736 189.467 234.866C188.422 236.179 188.223 238.45 189.536 239.664C190.519 240.564 191 239.664 192.079 239.457C195.744 238.888 193.606 240.87 192.313 240.936C191.735 241.01 191.151 240.96 190.588 240.787C189.153 240.203 189.064 239.452 190.319 238.532C191.55 239.135 192.079 236.74 190.869 236.146L190.842 236.113Z" fill="#659F9B"/>
<path d="M189.185 240.638C190.031 243.942 186.538 245.032 184.881 246.172C183.719 246.955 182.705 248.021 181.904 249.302C180.172 252.093 179.526 255.644 178.955 258.989C178.694 260.55 180.681 261.21 180.949 259.65C181.263 257.192 181.848 254.795 182.688 252.522C183.926 249.566 185.699 248.575 188.009 247.055C190.319 245.536 191.99 243.182 191.172 239.978C190.787 238.458 188.793 239.111 189.185 240.638Z" fill="#659F9B"/>
<path d="M192.622 238.978C192.131 239.06 191.682 239.359 191.364 239.818C191.046 240.276 190.882 240.86 190.904 241.456C190.904 242.439 191.447 243.066 191.818 243.851C192.699 245.456 193.372 247.213 193.812 249.062C194.142 250.838 194.465 254.017 193.695 255.669C192.272 258.733 189.701 258.147 187.507 258.147C185.445 258.147 183.85 258.972 183.919 255.52C183.96 253.58 185.087 251.614 185.981 250.086L184.098 249.789C184.495 252.311 184.704 254.87 184.723 257.436C184.723 258.584 186.187 259.22 186.641 258.056C187.746 255.263 188.624 252.348 189.261 249.351L187.232 249.021L187.59 255.297C187.596 255.565 187.674 255.824 187.811 256.034C187.949 256.245 188.14 256.397 188.355 256.467C188.57 256.538 188.798 256.523 189.006 256.425C189.214 256.328 189.39 256.152 189.508 255.925C189.749 255.606 189.925 255.224 190.024 254.81C190.092 254.422 189.46 251.804 189.206 252.737L191.227 253.068L191.371 247.105L189.309 247.435C189.745 249.117 189.876 250.891 189.694 252.638C189.563 254.017 191.495 254.331 191.756 252.968L193.049 244.958L191.165 245.247C191.613 246.355 191.736 247.612 191.516 248.814C191.364 250.4 193.427 250.383 193.578 248.814C193.753 247.17 193.534 245.499 192.946 244C192.841 243.793 192.689 243.627 192.507 243.522C192.326 243.418 192.123 243.379 191.923 243.41C191.723 243.442 191.536 243.543 191.383 243.7C191.23 243.857 191.118 244.065 191.062 244.297L189.762 252.308L191.791 252.638C191.997 250.669 191.84 248.67 191.33 246.783C191.261 246.498 191.11 246.253 190.903 246.091C190.697 245.929 190.449 245.862 190.204 245.901C189.96 245.94 189.735 246.083 189.571 246.303C189.406 246.524 189.313 246.809 189.309 247.105L189.164 253.068C189.164 254.513 190.835 254.719 191.192 253.398L191.302 252.993C191.35 252.782 191.351 252.56 191.305 252.349C191.259 252.137 191.168 251.944 191.041 251.787C188.903 248.996 188.47 253.439 187.727 254.67L189.652 255.297L189.295 249.021C189.219 247.683 187.569 247.27 187.267 248.69C186.686 251.484 185.88 254.203 184.861 256.809L186.786 257.436C186.763 254.648 186.533 251.867 186.098 249.128C185.919 247.988 184.675 248.038 184.214 248.831C182.839 251.209 180.461 256.404 182.296 259.253C183.898 261.731 188.937 260.773 191.089 260.616C194.486 260.385 195.716 257.8 196.087 253.951C196.264 252.108 196.178 250.243 195.833 248.434C195.647 247.46 193.771 241.283 193.207 241.406C194.513 241.117 193.956 238.722 192.657 239.011L192.622 238.978Z" fill="#659F9B"/>
<path d="M188.628 244.545L182.997 253.472L184.778 254.719L188.903 247.551L187.019 246.593L184.964 256.016C184.908 256.302 184.939 256.602 185.05 256.864C185.161 257.126 185.345 257.332 185.57 257.447C185.795 257.561 186.047 257.577 186.281 257.49C186.514 257.404 186.715 257.221 186.847 256.974C187.783 255.112 188.833 253.337 189.989 251.664L188.271 250.458C187.809 252.591 186.919 254.556 185.679 256.181L187.404 257.387C187.51 256.246 187.763 255.131 188.154 254.083C188.683 252.655 187.006 251.391 186.373 252.828C185.791 254.137 185.127 255.39 184.386 256.577L186.27 256.875L186.689 254.521L184.806 254.224L185.108 256.288C185.158 256.496 185.251 256.685 185.38 256.836C185.509 256.987 185.668 257.095 185.842 257.15C186.016 257.205 186.199 257.205 186.373 257.149C186.547 257.094 186.705 256.985 186.834 256.833C188.577 254.666 189.975 252.133 190.959 249.359H189.185C189.651 250.392 189.978 251.507 190.154 252.663C190.402 254.149 192.045 253.596 192.176 252.333C192.471 249.566 192.622 246.78 192.629 243.991H190.567V249.186C190.567 250.532 192.402 250.929 192.595 249.516C192.731 248.263 193.075 247.056 193.606 245.965H191.797C192.233 246.81 192.471 247.78 192.485 248.773C192.485 249.102 192.594 249.417 192.787 249.649C192.98 249.881 193.243 250.012 193.516 250.012C193.79 250.012 194.052 249.881 194.245 249.649C194.439 249.417 194.547 249.102 194.547 248.773L194.809 247.121H192.822C193.021 248.583 193.777 256.817 191.089 255.851C190.636 255.719 190.505 255.752 190.697 255.942L191.309 254.372L192.746 250.714L190.821 250.086C190.945 251.787 191.076 254.215 190.223 255.669C189.536 256.85 187.418 257.321 186.339 256.627C185.626 256.017 185.017 255.249 184.544 254.364L183.135 256.016C184.276 257.015 186.126 259.468 187.597 259.608C188.717 259.716 189.659 258.601 190.395 257.709C191.523 256.308 192.403 254.647 192.981 252.825C193.559 251.004 193.823 249.061 193.757 247.113C193.757 246.785 193.648 246.469 193.455 246.237C193.261 246.005 192.999 245.874 192.726 245.874C192.452 245.874 192.19 246.005 191.996 246.237C191.803 246.469 191.694 246.785 191.694 247.113V249.938C191.694 250.266 191.803 250.581 191.996 250.813C192.19 251.046 192.452 251.176 192.726 251.176C192.999 251.176 193.261 251.046 193.455 250.813C193.648 250.581 193.757 250.266 193.757 249.938V243.009C193.757 242.68 193.648 242.365 193.455 242.133C193.261 241.9 192.999 241.77 192.726 241.77C192.452 241.77 192.19 241.9 191.996 242.133C191.803 242.365 191.694 242.68 191.694 243.009C191.691 244.669 191.571 246.327 191.337 247.964L193.365 248.294C193.203 246.321 193.128 244.339 193.138 242.356C193.135 242.059 193.043 241.774 192.879 241.551C192.715 241.329 192.491 241.185 192.246 241.145C192.001 241.105 191.752 241.172 191.545 241.333C191.338 241.495 191.186 241.741 191.117 242.026C190.807 243.603 190.429 245.156 190.065 246.7L191.949 246.403L191.804 245.742C191.708 244.165 189.646 244.157 189.742 245.742C189.764 246.411 189.91 247.065 190.168 247.658C190.567 248.666 191.811 248.311 192.052 247.361C192.444 245.808 192.794 244.256 193.104 242.686L191.076 242.356C191.065 244.339 191.141 246.321 191.302 248.294C191.406 249.566 193.111 250.111 193.324 248.624C193.598 246.759 193.743 244.87 193.757 242.976H191.694V249.904H193.757V247.08H191.694C191.816 250.196 190.915 253.244 189.185 255.57C188.917 255.936 188.628 256.278 188.319 256.594C187.831 257.156 187.384 257.073 186.992 256.338C186.016 255.851 185.005 254.595 184.152 253.86C183.3 253.125 182.131 254.579 182.736 255.553C184.317 258.08 186.676 260.897 189.611 259.683C192.698 258.37 193.117 253.348 192.884 250.045C192.808 248.946 191.44 248.203 190.966 249.425C190.278 251.168 189.591 252.902 188.903 254.653C188.662 255.264 188.216 256.107 188.284 256.833C188.511 258.692 190.388 258.386 191.543 258.279C196.019 257.874 195.311 250.251 194.795 246.419C194.623 245.148 193.083 245.346 192.808 246.419C192.59 247.174 192.476 247.966 192.471 248.765H194.534C194.459 247.345 194.128 245.961 193.564 244.71C193.472 244.525 193.342 244.372 193.186 244.266C193.03 244.16 192.853 244.104 192.674 244.104C192.495 244.104 192.318 244.16 192.162 244.266C192.006 244.372 191.876 244.525 191.784 244.71C191.169 245.985 190.754 247.384 190.56 248.839L192.622 249.169V243.975C192.622 243.646 192.514 243.331 192.32 243.099C192.127 242.867 191.865 242.736 191.591 242.736C191.318 242.736 191.055 242.867 190.862 243.099C190.669 243.331 190.56 243.646 190.56 243.975C190.553 246.764 190.401 249.55 190.106 252.316L192.134 251.986C191.901 250.635 191.505 249.333 190.959 248.121C190.866 247.936 190.736 247.783 190.58 247.677C190.424 247.571 190.248 247.515 190.068 247.515C189.889 247.515 189.713 247.571 189.557 247.677C189.401 247.783 189.27 247.936 189.178 248.121C188.281 250.707 186.992 253.071 185.376 255.091L187.102 255.636L186.799 253.571C186.641 252.473 185.349 252.44 184.916 253.274C184.574 253.895 184.342 254.594 184.234 255.327C184.127 256.06 184.146 256.811 184.29 257.535C184.462 258.708 185.699 258.584 186.174 257.833C186.915 256.649 187.579 255.398 188.161 254.092L186.38 252.836C185.905 254.07 185.58 255.38 185.417 256.726C185.294 257.816 186.373 258.956 187.143 257.932C188.621 255.989 189.691 253.65 190.264 251.11C190.519 249.987 189.226 248.922 188.539 249.904C187.274 251.725 186.125 253.658 185.101 255.685L186.985 256.643L189.082 247.253C189.137 246.967 189.107 246.667 188.996 246.405C188.885 246.144 188.701 245.937 188.475 245.823C188.25 245.708 187.999 245.693 187.765 245.779C187.531 245.866 187.331 246.049 187.198 246.295L183.073 253.472C182.303 254.802 184.07 255.95 184.854 254.719L190.464 245.8C191.261 244.528 189.474 243.322 188.683 244.545H188.628Z" fill="#659F9B"/>
<path d="M276.339 274.35C284.589 268.288 291.147 259.245 298.435 251.68C306.341 243.479 314.639 235.84 323.185 228.606C339.781 214.566 357.209 202.005 374.623 189.476C374.849 189.305 375.01 189.035 375.074 188.723C375.137 188.412 375.097 188.083 374.963 187.806C374.828 187.529 374.609 187.325 374.352 187.238C374.095 187.15 373.82 187.186 373.585 187.338C356.171 199.866 338.736 212.402 322.14 226.467C314.309 233.074 306.664 240.077 299.335 247.51C291.36 255.603 284.259 265.678 275.273 272.211C274.139 273.037 275.177 275.184 276.311 274.35H276.339Z" fill="#659F9B"/>
<path d="M401.25 151.008C392.312 152.098 382.687 154.832 377.187 164.222C372.437 172.299 372.54 186.388 377.002 194.679C382.069 204.102 392.422 204.441 400.466 201.394C408.51 198.346 416.835 193.003 416.76 181.457C416.718 175.263 414.855 168.814 412.8 163.198C411.026 158.35 407.884 154.113 403.127 154.65C401.814 154.799 401.8 157.276 403.127 157.128C409.5 156.417 411.548 165.51 413.061 171.25C414.436 176.61 415.708 182.952 413.549 188.279C411.39 193.606 406.186 196.323 401.738 198.272C396.925 200.37 391.639 201.65 386.613 199.924C376.658 196.579 373.908 181.424 376.775 170.672C380.075 158.284 391.762 154.642 401.284 153.486C402.59 153.329 402.604 150.851 401.284 151.008H401.25Z" fill="#659F9B"/>
<path d="M415 246.808C406.062 247.898 396.437 250.631 390.937 260.021C386.187 268.098 386.29 282.187 390.752 290.479C395.819 299.902 406.172 300.24 414.216 297.193C422.26 294.146 430.585 288.802 430.51 277.257C430.468 271.063 428.605 264.613 426.55 258.997C424.776 254.149 421.634 249.913 416.877 250.45C415.564 250.598 415.55 253.076 416.877 252.927C423.25 252.217 425.298 261.31 426.811 267.049C428.186 272.409 429.458 278.752 427.299 284.078C425.14 289.405 419.936 292.122 415.488 294.071C410.675 296.169 405.389 297.449 400.363 295.723C390.408 292.378 387.658 277.224 390.525 266.471C393.825 254.083 405.512 250.441 415.034 249.285C416.34 249.128 416.354 246.651 415.034 246.808H415Z" fill="#659F9B"/>
<path d="M387.768 175.131L394.278 184.051C394.407 184.2 394.566 184.307 394.74 184.361C394.913 184.414 395.095 184.414 395.268 184.358C395.441 184.302 395.599 184.194 395.727 184.043C395.855 183.892 395.948 183.704 395.997 183.497C397.372 179.153 397.111 174.652 397.434 170.085C397.79 165.365 398.777 160.744 400.356 156.401C403.528 147.591 408.906 140.187 415.742 135.218C416.876 134.392 415.838 132.245 414.704 133.079C407.963 137.955 402.555 145.091 399.146 153.609C397.477 157.755 396.319 162.17 395.708 166.716C395.021 172.076 395.647 177.692 393.997 182.837L395.722 182.283L389.246 173.381C388.366 172.183 386.915 173.942 387.789 175.131H387.768Z" fill="#659F9B"/>
<path d="M279.659 284.004C315.12 282.705 350.591 282.43 386.07 283.178C387.397 283.178 387.397 280.701 386.07 280.701C350.6 279.941 315.13 280.216 279.659 281.527C278.332 281.576 278.326 284.054 279.659 284.004Z" fill="#659F9B"/>
<path d="M393.481 259.575C405.603 265.291 417.264 272.329 428.317 280.602C429.444 281.427 430.482 279.305 429.355 278.463C418.157 270.088 406.342 262.966 394.059 257.189C392.828 256.602 392.292 258.997 393.515 259.575H393.481Z" fill="#659F9B"/>
<path d="M415.495 248.352C403.202 265.566 396.081 287.243 395.275 309.903C395.22 311.497 397.283 311.497 397.338 309.903C398.119 287.894 405.026 266.836 416.952 250.103C417.812 248.897 416.361 247.138 415.495 248.352Z" fill="#659F9B"/>
<path d="M140.531 275.011L217.372 273.805L226.207 273.664C227.795 273.664 229.383 273.598 230.971 273.59C233.205 273.59 234.711 275.82 234.67 278.545C234.567 284.326 231.542 284.12 227.582 284.326L218.032 284.847L179.148 286.903C172.183 287.275 165.212 287.729 158.248 288.018C151.964 288.249 140.015 285.788 142.807 274.804C143.192 273.276 141.205 272.624 140.813 274.143C139.438 279.545 141.872 285.028 145.79 287.861C151.352 291.875 158.681 290.512 164.82 290.182L212.56 287.58L224.151 286.961C227.121 286.796 231.253 287.522 233.982 285.862C237.186 283.922 237.75 276.216 235.728 272.971C234.69 271.319 233.233 271.17 231.603 271.096C227.327 270.898 222.975 271.236 218.692 271.302L194.891 271.682L140.503 272.508C139.177 272.508 139.177 274.986 140.503 274.986L140.531 275.011Z" fill="#659F9B"/>
<path d="M450.99 578.513C449.258 579.818 447.278 580.553 445.49 581.701C443.703 582.849 441.963 584.575 441.455 586.953C441.265 587.692 441.296 588.487 441.544 589.2C441.989 590.061 442.669 590.709 443.469 591.033C447.1 592.97 451.022 593.997 454.995 594.051C458.968 594.105 462.909 593.185 466.576 591.347C467.866 590.602 469.198 589.967 470.563 589.448C472.244 589.036 473.955 588.825 475.671 588.82C477.475 588.693 479.269 588.417 481.041 587.994C481.931 587.875 482.775 587.454 483.474 586.78C484.112 585.897 484.495 584.791 484.567 583.625C485.381 577.191 484.154 570.625 481.13 565.225C480.749 564.468 480.238 563.818 479.631 563.317C478.891 562.858 478.078 562.596 477.246 562.549C473.808 562.046 470.206 561.121 466.734 561.022C464.245 560.955 462.994 562.376 461.234 564.432C457.597 568.801 455.473 575.152 450.99 578.513Z" fill="#323444"/>
<path d="M501.652 577.902C501.652 581.949 502.057 586.235 504.099 589.464C505.033 590.86 506.164 592.048 507.44 592.974C511.758 596.277 517.478 597.491 522.029 594.692C522.764 594.295 523.393 593.66 523.844 592.858C524.531 591.421 524.167 589.629 523.782 588.044L517.196 560.625C512.94 561.41 506.684 561.963 502.903 564.556C500.16 566.431 501.652 574.285 501.652 577.902Z" fill="#323444"/>
<path d="M447.126 409.072C446.728 410.583 445.284 411.285 444.493 412.557C443.565 414.052 443.661 416.125 443.998 417.942C444.414 420.621 445.462 423.1 447.016 425.085C447.805 426.069 448.779 426.811 449.855 427.251C450.931 427.69 452.08 427.814 453.204 427.612C455.418 427.109 457.329 424.755 457.404 422.054C457.365 420.826 457.146 419.616 456.758 418.478L452.07 402.193C452.05 402.077 452.011 401.969 451.954 401.873C451.897 401.778 451.824 401.698 451.74 401.639C451.563 401.592 451.377 401.631 451.224 401.747C450.117 402.374 447.896 403.035 447.25 404.414C446.604 405.793 447.594 407.577 447.126 409.072Z" fill="#FBB3B2"/>
<path d="M444.933 408.254C446.645 407.932 448.144 406.727 449.746 405.934C451.347 405.141 453.355 404.835 454.702 406.157C455.087 406.537 455.459 407.057 455.961 407.049C455.278 403.01 454.246 399.069 452.881 395.288C452.833 395.107 452.739 394.949 452.612 394.834C452.425 394.743 452.215 394.743 452.028 394.834L447.401 396.288C445.689 396.825 445.49 396.659 445.621 398.683C445.655 399.583 446.04 408.254 444.933 408.254Z" fill="#323444"/>
<path d="M444.426 290.652C443.738 291.924 443.738 293.51 443.738 295.005C443.738 302.313 443.8 309.664 444.701 316.898C444.914 318.632 445.182 320.367 445.319 322.117C445.475 324.555 445.507 327.001 445.416 329.443L444.728 361.238C444.646 365.128 444.481 369.307 442.48 372.363C441.873 373.387 441.588 374.636 441.676 375.889C442.198 383.867 443.298 391.779 444.391 399.665C446.151 398.712 448.074 398.272 450.003 398.383C451.931 398.493 453.811 399.151 455.487 400.301C458.956 387.2 460.875 373.578 461.187 359.834C461.345 353.071 461.104 346.266 461.97 339.584C463.421 328.336 462.83 316.799 461.764 305.485C461.427 301.9 460.712 298.209 458.801 295.434C456.992 293.006 454.582 291.339 451.926 290.677C449.382 289.876 447.107 290.702 444.426 290.652Z" fill="#B06252"/>
<path opacity="0.1" d="M442.48 372.363C441.873 373.387 441.588 374.636 441.676 375.889C442.186 383.689 443.249 391.426 444.318 399.138C444.474 399.057 444.632 398.979 444.791 398.905M442.48 372.363L442.898 372.637C442.9 372.633 442.903 372.63 442.905 372.627M442.48 372.363C444.481 369.307 444.646 365.128 444.728 361.238M442.48 372.363L442.91 372.617C442.908 372.621 442.907 372.624 442.905 372.627M442.905 372.627C442.356 373.557 442.094 374.701 442.174 375.854L442.175 375.856C442.68 383.581 443.729 391.245 444.791 398.905M442.905 372.627C444.991 369.431 445.146 365.104 445.228 361.249L444.728 361.238M444.791 398.905C444.815 399.078 444.839 399.251 444.863 399.424C446.492 398.638 448.245 398.282 450.003 398.383C451.764 398.484 453.484 399.041 455.046 400.013C455.091 399.845 455.135 399.676 455.179 399.508M444.791 398.905C446.453 398.132 448.238 397.781 450.031 397.884C451.831 397.987 453.584 398.543 455.179 399.508M455.179 399.508C455.328 399.598 455.476 399.692 455.622 399.789C459.006 386.845 460.879 373.398 461.187 359.834C461.229 358.043 461.242 356.249 461.256 354.455C461.295 349.475 461.334 344.496 461.97 339.584M455.179 399.508C458.527 386.649 460.381 373.295 460.687 359.823L460.687 359.823C460.728 358.049 460.742 356.266 460.756 354.478C460.795 349.488 460.834 344.465 461.475 339.52M461.475 339.52L461.97 339.584M461.475 339.52C461.475 339.52 461.475 339.52 461.475 339.52L461.97 339.584M461.475 339.52C462.918 328.328 462.331 316.836 461.266 305.532L461.266 305.531C460.931 301.966 460.225 298.388 458.395 295.725M461.97 339.584C463.421 328.336 462.83 316.799 461.764 305.485C461.427 301.9 460.712 298.209 458.801 295.434M458.395 295.725C458.396 295.728 458.398 295.73 458.4 295.733L458.801 295.434M458.395 295.725C458.393 295.723 458.391 295.72 458.389 295.718L458.801 295.434M458.395 295.725C456.647 293.384 454.335 291.792 451.805 291.162L451.79 291.159L451.776 291.154C450.595 290.782 449.467 290.783 448.268 290.881C447.939 290.908 447.6 290.943 447.252 290.979C446.454 291.062 445.61 291.149 444.736 291.154M458.801 295.434C456.992 293.006 454.582 291.339 451.926 290.677C450.29 290.162 448.764 290.32 447.17 290.485C446.287 290.576 445.382 290.67 444.426 290.652M444.736 291.154C444.776 291.064 444.819 290.976 444.865 290.89L444.426 290.652M444.736 291.154C444.63 291.155 444.523 291.154 444.416 291.152L444.426 290.652M444.736 291.154C444.248 292.25 444.238 293.594 444.238 295.005C444.238 302.315 444.3 309.636 445.197 316.836L445.197 316.837C445.258 317.335 445.324 317.837 445.391 318.343C445.554 319.576 445.719 320.826 445.818 322.078L445.818 322.086L445.818 322.086C445.975 324.538 446.008 327 445.915 329.458L445.915 329.454L445.416 329.443M444.426 290.652C443.738 291.924 443.738 293.51 443.738 295.005C443.738 302.313 443.8 309.664 444.701 316.898C444.763 317.406 444.83 317.914 444.897 318.422C445.06 319.65 445.222 320.879 445.319 322.117C445.475 324.555 445.507 327.001 445.416 329.443M445.416 329.443L445.915 329.462L445.228 361.249L444.728 361.238M445.416 329.443L444.728 361.238" fill="#B06252" stroke="#B06252"/>
<path d="M452.826 382.859C448.215 411.243 450.732 440.633 460.058 467.295C460.864 469.269 461.429 471.371 461.736 473.538C462.114 477.585 460.56 481.475 459.673 485.389C457.611 494.292 458.8 503.773 460.12 512.882C460.67 516.681 461.236 520.477 461.818 524.271C462.389 527.971 462.939 531.993 461.509 535.346C462.739 541.507 463.468 547.61 464.699 553.77C464.829 554.258 464.869 554.774 464.816 555.282C464.568 556.088 464.131 556.791 463.558 557.305C462.64 558.422 461.981 559.807 461.645 561.323C461.308 562.839 461.307 564.435 461.639 565.952C464.781 563.243 469.161 564.193 472.749 565.952C476.338 567.711 479.872 570.081 483.749 570.081C483.185 564.614 482.642 558.874 484.32 553.746C485.296 550.773 487.015 547.965 486.967 544.785C486.919 541.936 485.468 539.392 485.117 536.576C484.987 534.824 485.042 533.059 485.282 531.324C486.204 521.215 485.159 511.008 484.114 500.916C483.995 498.925 483.605 496.972 482.959 495.135C482.47 493.945 481.742 492.806 481.755 491.476C481.755 489.932 482.794 488.676 483.179 487.206C483.866 484.498 482.601 480.814 484.505 479.138C489.524 474.711 487.599 464.14 487.489 456.666C487.402 450.219 487.173 443.777 486.802 437.341C489.962 448.014 491.253 459.356 490.597 470.656C490.377 474.356 489.971 478.246 491.174 481.665C492.095 484.291 493.924 486.455 494.419 489.238C494.729 490.956 494.509 492.731 494.577 494.482C494.646 496.233 495.141 498.141 496.399 499.024C496.495 506.986 497.087 515.5 497.19 523.462C497.123 527.531 497.399 531.599 498.015 535.602C498.323 536.875 498.494 538.191 498.524 539.516C498.368 541.178 498.002 542.802 497.437 544.331C496.239 548.593 495.926 553.142 496.525 557.582C497.124 562.022 498.617 566.22 500.875 569.809C502.497 566.348 505.88 564.515 509.18 564.226C512.48 563.937 515.738 564.936 518.935 565.944C518.446 561.118 519.246 556.231 521.218 551.987C521.746 551.03 522.152 549.983 522.421 548.881C522.792 546.784 521.926 544.694 521.458 542.621C520.695 539.318 520.963 535.759 521.142 532.306C521.742 520.745 521.316 509.14 519.87 497.687C519.647 495.431 519.206 493.213 518.557 491.08C518.31 490.32 518.007 489.593 517.801 488.825C517.476 487.447 517.292 486.028 517.251 484.597L516.46 471.383C515.903 462.125 518.433 452.983 520.2 443.948C520.991 439.901 521.85 435.863 522.38 431.75C523.101 426.151 523.218 420.428 524.277 414.903C525.226 409.947 526.938 405.116 527.295 400.037C527.845 392.167 525.123 384.561 522.483 377.343C521.383 374.369 517.223 374.667 514.549 374.138C495.581 370.397 475.602 370.372 457.714 378.804C455.864 379.725 454.198 381.107 452.826 382.859Z" fill="#3C354C"/>
<path d="M466.5 236.278L468.604 246.106C469.176 248.359 469.492 250.696 469.546 253.051C469.567 253.91 469.409 254.762 469.085 255.529C468.739 256.158 468.295 256.702 467.779 257.131C466.342 258.444 465.345 261.508 463.702 262.416C464.548 264.184 465.716 263.036 467.243 263.919C469.931 265.488 472.392 267.743 475.307 268.519C478.057 269.246 480.944 268.561 483.674 267.693C487.544 266.43 491.394 264.687 494.509 261.64C497.623 258.593 499.397 255.9 499.383 251.085C495.945 251.573 492.886 247.402 491.367 243.653C490.84 242.228 490.452 240.734 490.212 239.201L488.369 229.465C486.362 229.993 484.726 231.719 482.807 232.619C480.889 233.519 478.621 233.602 476.489 233.718C472.706 233.924 468.944 234.51 465.242 235.468C464.733 235.592 464.094 235.981 464.218 236.575" fill="#FBB3B2"/>
<path opacity="0.1" d="M466.5 236.278L468.604 246.106C469.176 248.359 469.492 250.696 469.546 253.051C469.567 253.91 469.409 254.762 469.085 255.529C468.739 256.158 468.295 256.702 467.779 257.131C466.342 258.444 465.345 261.508 463.702 262.416C464.548 264.184 465.716 263.036 467.243 263.919C469.931 265.488 472.392 267.743 475.307 268.519C478.057 269.246 480.944 268.561 483.674 267.693C487.544 266.43 491.394 264.687 494.509 261.64C497.623 258.593 499.397 255.9 499.383 251.085C495.945 251.573 492.886 247.402 491.367 243.653C490.84 242.228 490.452 240.734 490.212 239.201L488.369 229.465C486.362 229.993 484.726 231.719 482.807 232.619C480.889 233.519 478.621 233.602 476.489 233.718C472.706 233.924 468.944 234.51 465.242 235.468C464.733 235.592 464.094 235.981 464.218 236.575" fill="black"/>
<path d="M475.534 241.695C485.588 241.695 493.739 231.904 493.739 219.827C493.739 207.749 485.588 197.958 475.534 197.958C465.479 197.958 457.329 207.749 457.329 219.827C457.329 231.904 465.479 241.695 475.534 241.695Z" fill="#FBB3B2"/>
<path d="M480.546 255.875C481.519 253.35 482.925 251.099 484.67 249.269C487.235 246.568 490.741 244.38 491.346 240.349L496.901 248.121C497.203 248.481 497.437 248.915 497.589 249.392C497.659 249.841 497.648 250.301 497.558 250.744C497.468 251.187 497.3 251.602 497.066 251.961C495.691 254.595 493.525 256.478 491.477 258.386C486.781 262.854 482.285 267.618 478.009 272.657C477.82 272.92 477.568 273.105 477.287 273.185C477.021 273.194 476.76 273.105 476.537 272.929C472.848 270.602 469.582 267.412 466.933 263.548C466.734 263.259 466.486 262.928 466.163 262.953C465.968 262.996 465.789 263.108 465.647 263.275C463.798 265.092 461.777 267.264 459.405 266.983C462.478 264.332 464.217 259.906 464.864 255.421C464.992 253.886 465.254 252.372 465.647 250.904C465.851 250.169 466.202 249.506 466.67 248.973C467.138 248.44 467.707 248.054 468.329 247.848C466.83 250.598 467.854 254.496 469.869 256.718C471.826 258.713 474.172 260.08 476.689 260.69C479.026 261.219 479.714 258.039 480.546 255.875Z" fill="#323444"/>
<path d="M456.861 385.106C459.453 385.874 461.908 387.179 464.424 388.145C469.01 389.87 473.836 390.479 478.621 389.937C480.093 389.898 481.525 389.35 482.745 388.359C483.069 388.046 483.364 387.674 483.708 387.385C484.283 386.97 484.906 386.661 485.557 386.468C491.862 384.098 497.142 378.986 502.263 373.981C502.428 373.816 502.614 373.61 502.6 373.345C502.577 373.165 502.504 373 502.394 372.875L499.699 369.158C492.632 370.604 485.392 370.058 478.222 369.844C476.75 369.765 475.275 369.812 473.808 369.984C472.392 370.182 470.996 370.612 469.601 370.975C464.3 372.363 458.883 372.891 453.513 373.8C453.138 373.833 452.773 373.968 452.448 374.196C452.221 374.406 452.028 374.664 451.877 374.956L449.993 378.135C449.262 379.205 448.724 380.445 448.412 381.777C447.972 384.255 448.893 385.081 450.646 384.759C452.717 384.395 454.827 384.512 456.861 385.106Z" fill="#323444"/>
<path d="M477.933 268.874C475.83 266.286 473.446 264.049 470.845 262.226C469.794 261.425 468.629 260.864 467.408 260.575C466.793 260.429 466.16 260.447 465.552 260.626C464.943 260.806 464.375 261.144 463.888 261.615C463.276 262.268 462.891 263.176 462.299 263.861C461.555 264.612 460.702 265.192 459.783 265.571C456.654 267.177 453.687 269.208 450.942 271.625C449.446 272.882 448.097 274.377 446.934 276.068C443.82 280.858 443.352 287.374 443.435 293.452C443.496 297.68 446.872 300.819 449.196 303.982C451.375 307.094 453.348 310.408 455.095 313.892C456.346 316.27 457.652 318.847 457.494 321.68C457.363 324 456.236 326.181 456.414 328.493C456.476 329.319 456.696 330.079 456.758 330.88C456.882 332.532 456.339 334.183 456.201 335.835C456.016 338.172 456.648 340.493 456.683 342.846C456.657 344.458 456.487 346.061 456.174 347.628C454.854 355.177 453.197 362.766 453.534 370.471L449.725 371.297C450.086 371.722 450.358 372.243 450.52 372.818C450.683 373.392 450.73 374.005 450.658 374.606C450.586 375.206 450.398 375.778 450.108 376.275C449.818 376.772 449.435 377.18 448.99 377.466C454.936 379.853 461.364 378.647 467.669 378.639C472.887 378.639 478.084 379.465 483.296 379.349C488.507 379.234 493.883 378.102 498.18 374.559C499.349 373.601 500.421 372.478 501.652 371.644C503.3 370.618 505.076 369.921 506.911 369.579C510.309 368.801 513.764 368.43 517.223 368.473C518.915 368.473 520.757 368.555 522.105 367.333C523.59 365.979 523.968 363.526 524.167 361.304C524.367 358.959 524.49 356.605 524.525 354.252C524.582 352.419 524.502 350.583 524.284 348.768C524.078 347.44 523.809 346.128 523.48 344.837L520.888 333.869C519.815 329.344 521.307 324.38 521.623 319.689C521.699 318.583 521.713 317.294 521.005 316.584C520.75 316.328 520.4 316.155 520.317 315.758C520.28 315.57 520.276 315.375 520.304 315.184C520.332 314.994 520.393 314.813 520.482 314.652C521.857 311.348 523.92 308.433 525.803 305.452C528.967 300.222 531.904 294.8 534.603 289.207C533.758 277.503 529.655 266.483 522.957 257.924C521.582 256.131 520.008 254.414 518.083 253.604C516.825 253.143 515.52 252.89 514.205 252.853C508.815 252.415 503.205 252.027 498.51 248.773C498.173 248.493 497.791 248.299 497.389 248.203C496.351 248.063 495.595 249.293 494.921 250.268C493.189 252.745 490.638 254.166 488.397 255.991C484.217 259.402 480.951 264.093 477.933 268.874Z" fill="#B6543F"/>
<path d="M535.071 292.585C536.143 296.665 536.04 301.025 536.391 305.278C536.598 307.845 536.973 310.388 537.511 312.884C537.757 314.256 538.199 315.567 538.817 316.758C539.436 317.848 540.323 318.731 540.715 319.962C540.929 320.796 541.024 321.667 540.997 322.539L541.079 328.237C541.256 331.257 540.873 334.286 539.959 337.107L536.996 347.934C535.394 353.797 533.751 359.752 530.863 364.856C530.456 365.719 529.84 366.414 529.096 366.846C528.514 367.031 527.917 367.142 527.316 367.176C526.268 367.401 525.317 368.057 524.628 369.032C523.94 370.008 523.555 371.241 523.541 372.52C522.853 371.312 521.995 370.258 521.004 369.406L514.975 363.625C512.913 361.61 510.761 359.562 508.258 358.397C511.624 357.135 514.612 354.726 516.86 351.462C519.108 348.199 520.519 344.222 520.922 340.014C520.92 338.761 521.155 337.524 521.609 336.397C522.111 335.422 523.039 334.679 523.108 333.531C523.191 332.086 521.829 330.995 521.829 329.55C521.829 328.592 522.421 327.799 522.682 326.899C522.926 325.787 522.926 324.617 522.682 323.505L521.85 317.955C521.801 317.399 521.661 316.86 521.438 316.369C521.126 315.899 520.781 315.462 520.406 315.065C518.976 313.14 519.609 310.11 520.406 307.739C522.238 302.478 524.597 297.505 527.433 292.932C528.442 291.396 529.376 289.791 530.231 288.125C530.959 286.606 531.124 284.5 531.894 283.17C532.884 286.292 534.225 289.372 535.071 292.585Z" fill="#B06252"/>
<path d="M508.045 358.736C507.738 359.01 507.473 359.345 507.262 359.727C506.452 360.949 505.373 361.873 504.147 362.395C504.835 362.989 505.46 363.576 506.107 364.178C510.888 368.614 515.266 373.644 519.169 379.184C519.602 377.326 522.194 377.458 522.826 375.683C522.975 375.174 523.023 374.631 522.964 374.097C522.833 371.315 522.501 368.552 521.974 365.838C521.766 364.441 521.296 363.12 520.599 361.973C519.636 360.578 518.138 359.909 516.708 359.331C514.542 358.422 510.245 357.142 508.045 358.736Z" fill="#323444"/>
<path d="M499.452 365.227C497.389 367.061 495.581 369.357 493.264 370.612C491.628 371.504 489.765 371.892 488.335 373.222C489.112 375.278 491.133 376.343 493.01 376.261C494.888 376.039 496.689 375.246 498.242 373.957C499.472 373.048 500.916 371.991 502.256 372.627C502.463 373.882 501.569 375.063 501.569 376.335C501.569 377.607 502.449 378.532 503.315 379.201C507.44 382.397 512.748 382.133 517.663 381.761C517.945 381.773 518.223 381.675 518.454 381.48C518.56 381.331 518.641 381.157 518.692 380.97C518.743 380.783 518.762 380.586 518.75 380.39C518.811 379.085 518.839 377.789 518.846 376.484C518.985 375.432 518.871 374.354 518.518 373.376C518.165 372.399 517.587 371.563 516.852 370.967C514.185 368.212 511.307 365.765 508.258 363.658C505.233 361.552 502.167 362.799 499.452 365.227Z" fill="#FBB3B2"/>
<path d="M481.927 210.685C478.875 211.122 476.654 213.988 476.964 217.101C477.273 220.215 479.995 222.362 483.048 221.916C486.1 221.47 488.321 218.613 488.012 215.508C487.702 212.402 484.98 210.247 481.927 210.685ZM482.965 221.057C480.38 221.429 478.077 219.604 477.809 216.978C477.541 214.351 479.432 211.923 482.01 211.552C484.588 211.18 486.898 213.005 487.166 215.631C487.434 218.258 485.543 220.686 482.965 221.057Z" fill="#3C354C"/>
<path d="M467.05 212.832C463.997 213.269 461.777 216.135 462.086 219.24C462.396 222.346 465.118 224.501 468.17 224.063C471.223 223.626 473.444 220.76 473.134 217.646C472.825 214.533 470.102 212.394 467.05 212.832ZM468.088 223.196C465.503 223.568 463.2 221.743 462.939 219.125C462.677 216.507 464.554 214.071 467.139 213.691C469.724 213.311 472.027 215.144 472.289 217.77C472.55 220.397 470.666 222.825 468.088 223.196Z" fill="#3C354C"/>
<path d="M456.002 214.426L462.636 216.127L461.983 218.225L455.727 216.02L456.002 214.426Z" fill="#3C354C"/>
<path d="M492.982 209.091L486.864 212.634L487.915 214.483L493.56 210.561L492.982 209.091Z" fill="#3C354C"/>
<path d="M472.522 215.598L477.177 214.929L476.936 216.317L472.942 216.639L472.522 215.598Z" fill="#3C354C"/>
<path d="M463.496 213.724C463.934 212.592 464.168 211.362 464.183 210.115C464.199 209.368 464.306 208.628 464.499 207.918C464.837 207.016 465.352 206.226 465.998 205.614C468.143 203.433 471.216 202.31 474.248 202.153C477.554 201.971 480.843 202.825 483.791 204.631C484.691 205.138 485.498 205.857 486.162 206.745C487.125 208.157 487.331 209.983 488.301 211.378C488.962 212.225 489.794 212.853 490.717 213.2C491.64 213.547 492.621 213.602 493.567 213.36C493.904 211.923 493.464 210.404 493.636 208.934C493.906 207.674 494.272 206.447 494.729 205.267C495.794 201.493 494.24 197.116 491.037 194.861C489.916 194.035 488.589 193.498 487.751 192.384C486.912 191.269 486.712 190.112 486.135 188.998C484.602 186.049 480.635 184.67 477.617 186.033C476.668 186.462 475.829 187.115 474.867 187.577C473.079 188.461 471.044 188.618 469.078 188.915C467.14 189.13 465.245 189.727 463.468 190.682C461.77 191.69 460.347 193.308 459.955 195.241C459.769 196.133 459.811 197.058 459.625 197.942C458.676 202.426 452.551 204.606 452.207 209.181C452.083 210.833 452.833 212.419 453.768 213.765C454.414 214.682 455.961 217.134 457.054 217.49C458.147 217.845 458.979 216.598 460.024 216.168C461.674 215.549 462.671 215.417 463.496 213.724Z" fill="#CBCEDA"/>
<path d="M541.052 504.599C541.052 546.09 562.722 579.669 589.5 579.669L541.052 504.599Z" fill="#46455B"/>
<path d="M589.5 579.678C589.5 537.716 613.686 503.765 643.571 503.765L589.5 579.678Z" fill="#659F9B"/>
<path d="M558.611 508.365C558.611 547.783 572.429 579.678 589.5 579.678L558.611 508.365Z" fill="#659F9B"/>
<path d="M589.5 579.678C589.5 526.063 617.453 482.672 651.993 482.672L589.5 579.678Z" fill="#46455B"/>
<path opacity="0.1" d="M587.403 594.015C594.055 594.015 599.448 592.92 599.448 591.57C599.448 590.22 594.055 589.125 587.403 589.125C580.751 589.125 575.358 590.22 575.358 591.57C575.358 592.92 580.751 594.015 587.403 594.015Z" fill="#659F9B"/>
<path d="M579.311 580.206C579.311 580.206 586.186 579.95 588.248 578.183C590.311 576.415 598.815 574.293 599.331 577.134C599.846 579.975 609.643 591.264 601.895 591.339C594.147 591.413 583.869 589.885 581.807 588.374C579.744 586.863 579.311 580.206 579.311 580.206Z" fill="#A8A8A8"/>
<path opacity="0.2" d="M602.04 590.348C594.285 590.422 584.02 588.894 581.951 587.383C580.377 586.235 579.751 582.097 579.538 580.198H579.311C579.311 580.198 579.744 586.854 581.813 588.366C583.883 589.877 594.147 591.405 601.902 591.33C604.143 591.33 604.913 590.348 604.872 588.935C604.563 589.794 603.745 590.331 602.04 590.348Z" fill="black"/>
<path d="M15.4617 528.846C15.4617 561.88 32.6972 588.572 54.0027 588.572L15.4617 528.846Z" fill="#46455B"/>
<path d="M54.0027 588.572C54.0027 555.191 73.2526 528.177 97.0193 528.177L54.0027 588.572Z" fill="#659F9B"/>
<path d="M29.4248 531.852C29.4248 563.235 40.4247 588.589 54.0028 588.589L29.4248 531.852Z" fill="#659F9B"/>
<path d="M54.0027 588.572C54.0027 545.917 76.2432 511.396 103.722 511.396L54.0027 588.572Z" fill="#46455B"/>
<path opacity="0.1" d="M52.3322 599.985C57.6251 599.985 61.9159 599.113 61.9159 598.036C61.9159 596.96 57.6251 596.087 52.3322 596.087C47.0393 596.087 42.7485 596.96 42.7485 598.036C42.7485 599.113 47.0393 599.985 52.3322 599.985Z" fill="#659F9B"/>
<path d="M45.8972 588.993C45.8972 588.993 51.3628 588.787 53.0059 587.342C54.649 585.896 61.4209 584.245 61.8265 586.516C62.2321 588.787 70.042 597.756 63.889 597.813C57.7359 597.871 49.5478 596.657 47.9047 595.46C46.2616 594.262 45.8972 588.993 45.8972 588.993Z" fill="#A8A8A8"/>
<path opacity="0.2" d="M63.9783 597.095C57.7909 597.153 49.6372 595.939 47.9941 594.733C46.7428 593.825 46.2478 590.529 46.076 589.018H45.8972C45.8972 589.018 46.241 594.312 47.8841 595.518C49.5272 596.723 57.7015 597.929 63.8683 597.871C65.649 597.871 66.2677 597.095 66.2333 595.964C65.9858 596.624 65.3052 597.045 63.9783 597.095Z" fill="black"/>
</g>
<defs>
<clipPath id="clip0">
<rect width="652" height="626" fill="white"/>
</clipPath>
</defs>
</svg>
