<svg width="187" height="72" viewBox="0 0 187 72" fill="none" xmlns="http://www.w3.org/2000/svg">
<path d="M0.76 0.399998V70H47.704V62.896H10.072V0.399998H0.76ZM94.5393 25.552C89.8673 20.496 84.1073 17.968 77.2593 17.968C70.3473 17.968 64.6513 20.496 60.1713 25.552C55.6913 30.608 53.4513 36.944 53.4513 44.56C53.4513 52.176 55.6913 58.64 60.1713 63.952C64.6513 69.264 70.3153 71.92 77.1633 71.92C84.0113 71.92 89.7713 69.264 94.4433 63.952C99.1793 58.64 101.547 52.176 101.547 44.56C101.547 36.944 99.2113 30.608 94.5393 25.552ZM66.2193 30.832C68.8433 27.056 72.4273 25.168 76.9713 25.168C81.5153 25.168 85.1313 27.056 87.8193 30.832C90.5073 34.544 91.8513 39.056 91.8513 44.368C91.8513 49.68 90.5073 54.416 87.8193 58.576C85.0673 62.672 81.4193 64.72 76.8752 64.72C72.3313 64.72 68.7473 62.64 66.1233 58.48C63.5633 54.384 62.2833 49.712 62.2833 44.464C62.2833 39.152 63.5953 34.608 66.2193 30.832ZM133.231 18.352C129.903 18.352 126.799 19.44 123.919 21.616C121.103 23.792 119.087 26.896 117.871 30.928V20.752H108.943V70.288H117.871V41.968C117.871 36.976 119.119 33.232 121.615 30.736C124.111 28.24 128.111 26.896 133.615 26.704C134.831 26.704 136.079 26.832 137.359 27.088L137.455 18.544C135.279 18.416 133.871 18.352 133.231 18.352ZM186.884 48.4C186.884 34.256 183.62 25.232 177.092 21.328C174.34 19.856 171.076 19.12 167.3 19.12C160.388 19.12 154.724 21.616 150.308 26.608C145.892 31.6 143.684 37.808 143.684 45.232C143.684 52.72 145.86 58.928 150.212 63.856C154.5 68.72 160.132 71.152 167.108 71.152C174.084 71.152 180.196 69.488 185.444 66.16V56.944C180.9 60.976 174.82 62.992 167.204 62.992C162.916 62.992 159.492 61.872 156.932 59.632C154.436 57.456 152.932 53.712 152.42 48.4H186.884ZM167.204 27.664C171.364 27.664 174.372 28.72 176.228 30.832C178.02 32.944 179.076 36.272 179.396 40.816H152.42C153.572 32.048 158.436 27.664 167.012 27.664H167.204Z" fill="#659F9B"/>
</svg>
